<svg id="Ebene_1" data-name="Ebene 1" xmlns="http://www.w3.org/2000/svg" viewBox="0 0 1521.74 655.2"><defs><style>.cls-1{font-size:322px;fill:#121420;font-family:ProximaNova-Bold, Proxima Nova;font-weight:700;}.cls-2{letter-spacing:-0.02em;}.cls-3{fill:#a50f00;}</style></defs><text class="cls-1" transform="translate(1.61 536.7)"><tspan class="cls-2">A</tspan><tspan x="212.84" y="0">thenic</tspan><tspan class="cls-3" x="1115.06" y="0" xml:space="preserve"> UI</tspan></text><polygon class="cls-3" points="788.5 108.05 788.5 107.14 843.95 71.48 843.95 108.05 788.5 108.05"/><rect class="cls-3" x="788.49" y="108.05" width="55.47" height="108.05"/><polygon class="cls-3" points="734.3 108.05 734.3 107.14 678.85 71.48 678.85 108.05 734.3 108.05"/><rect class="cls-3" x="678.84" y="108.05" width="55.47" height="108.05"/><polygon class="cls-3" points="899.8 108.05 899.8 35.83 955.28 0.17 955.28 108.05 899.8 108.05"/><rect class="cls-3" x="899.81" y="108.05" width="55.47" height="108.05"/><polygon class="cls-3" points="566.46 108.05 566.46 0 623.19 36.47 623.19 108.05 566.46 108.05"/><rect class="cls-3" x="566.46" y="108.05" width="56.73" height="108.05"/></svg>